<svg version="1.1" id="Layer_1" xmlns="http://www.w3.org/2000/svg" x="0" y="0" viewBox="0 0 411.3 260" xml:space="preserve"><path d="M20.2 0c11.1 0 20.2 9.1 20.2 20.2v130h.2c-.2 1-.3 2-.3 3v86.7c0 11.1 9.1 20.2 20.2 20.2h290.2c11.1 0 20.2-9.1 20.2-20.2v-86.7c0-1-.1-2-.3-3h.3v-130C370.9 9.1 380 0 391.1 0H20.2z" fill="#fff"/><path fill="#a7a9ac" d="M331.2 142.3H80v-1.2h251.2v1.2z"/><path d="M89.8 164.1c0 .6-.1 1.1-.2 1.8-.1.6-.4 1.2-.7 1.7-.4.5-.9 1-1.5 1.3-.6.3-1.4.5-2.4.5s-1.8-.2-2.5-.5c-.6-.3-1.1-.8-1.5-1.3-.4-.5-.6-1.1-.7-1.7-.1-.6-.2-1.2-.2-1.8v-8.4h1.4v8.2c0 .6.1 1.2.2 1.6.1.5.3.8.5 1.2.2.3.4.6.7.7.3.2.5.3.8.4.3.1.5.2.7.2h1.2c.2 0 .5-.1.8-.2.3-.1.5-.2.8-.4.3-.2.5-.4.7-.7.2-.3.4-.7.5-1.2.1-.5.2-1 .2-1.6v-8.2H90v8.4h-.2zm13.3 3h.1v-11.3h1.3v13.3h-1.7l-7.9-11.4h-.1v11.4h-1.3v-13.3h1.7l7.9 11.3zm6.7 2h-1.3v-13.3h1.3v13.3zm7.9-2l4.4-11.3h1.4l-5.2 13.3H117l-5.1-13.3h1.5l4.3 11.3zm9.3.8h7.1v1.2h-8.5v-13.3h8.3v1.2H127v4.5h6.5v1.3H127v5.1zm11.5-6.2h2.4c.6 0 1.1-.1 1.5-.2.4-.1.8-.3 1-.5.3-.2.4-.5.5-.7.1-.3.2-.6.2-.9 0-.3-.1-.6-.2-.9-.1-.3-.3-.5-.5-.7-.3-.2-.6-.4-1-.5-.4-.1-.9-.2-1.5-.2h-2.4v4.6zm0 7.4h-1.4v-13.4h4.1c1.4 0 2.4.3 3.2.9.8.6 1.2 1.5 1.2 2.7 0 .9-.3 1.7-.9 2.3-.6.6-1.4 1-2.5 1.1l3.8 6.3h-1.7l-3.7-6.2h-2.3v6.3h.2zM155 158c-.6-.9-1.5-1.3-2.6-1.3-.4 0-.7 0-1 .1-.3.1-.6.2-.9.4-.3.2-.5.4-.7.8-.2.3-.2.7-.2 1.1 0 .6.2 1.1.5 1.4.3.3.8.6 1.3.8.5.2 1.1.4 1.6.6.6.2 1.1.4 1.7.7.5.3.9.7 1.3 1.1.3.5.5 1.1.5 1.9 0 .6-.1 1.1-.4 1.6-.3.5-.6.9-1 1.2-.4.3-.9.6-1.4.8-.5.2-1 .3-1.6.3-.8 0-1.6-.2-2.3-.5-.7-.3-1.4-.8-1.9-1.5l1.2-.9c.3.5.7.9 1.2 1.2.5.3 1.1.4 1.8.4.3 0 .7-.1 1-.2.3-.1.6-.3.9-.5.3-.2.5-.5.7-.8.2-.3.3-.6.3-1 0-.5-.1-.9-.3-1.2-.2-.3-.5-.6-.8-.8-.3-.2-.7-.4-1.1-.5-.4-.1-.8-.3-1.3-.4-.4-.1-.9-.3-1.3-.5s-.8-.4-1.1-.7c-.3-.3-.6-.6-.8-1-.2-.4-.3-.9-.3-1.5s.1-1.2.4-1.7c.2-.5.6-.9 1-1.2.4-.3.9-.5 1.4-.7.5-.2 1-.2 1.6-.2.8 0 1.4.1 2.1.4.6.2 1.2.7 1.7 1.3l-1.2 1zm5.8 11.1h-1.4v-13.3h1.4v13.3zm8.2 0h-1.3V157h-4.5v-1.2h10.3v1.2H169v12.1zm12 0h-1.4v-5.8l-5-7.5h1.7l4 6.2 4-6.2h1.7l-5 7.5v5.8zm23.4-6.7c0-.8-.1-1.5-.4-2.2-.3-.7-.6-1.3-1.1-1.8-.5-.5-1-1-1.7-1.3-.7-.3-1.4-.5-2.3-.5-.9 0-1.6.2-2.3.5-.7.3-1.3.7-1.7 1.3-.5.5-.8 1.1-1.1 1.8-.3.7-.4 1.4-.4 2.2 0 .8.1 1.5.4 2.2.3.7.6 1.3 1.1 1.8.5.5 1 .9 1.7 1.3.7.3 1.4.5 2.3.5.9 0 1.6-.2 2.3-.5.7-.3 1.3-.7 1.7-1.3.5-.5.8-1.1 1.1-1.8.3-.7.4-1.4.4-2.2zm1.5 0c0 1-.2 2-.5 2.8-.4.9-.8 1.6-1.5 2.2-.6.6-1.4 1.1-2.2 1.5-.8.4-1.8.5-2.8.5-1 0-1.9-.2-2.8-.5-.8-.4-1.6-.8-2.2-1.5-.6-.6-1.1-1.4-1.5-2.2-.4-.9-.5-1.8-.5-2.8 0-1 .2-2 .5-2.8.4-.9.8-1.6 1.5-2.2.6-.6 1.4-1.1 2.2-1.5.8-.4 1.8-.5 2.8-.5 1 0 1.9.2 2.8.5.8.4 1.6.8 2.2 1.5.6.6 1.1 1.4 1.5 2.2.3.9.5 1.8.5 2.8zm4.4 6.7h-1.4v-13.3h8.1v1.2h-6.7v4.5h6.2v1.3h-6.2v6.3zm17.5-1.9l3.4-11.4h1.6l3.4 11.4 3.2-11.4h1.5l-3.9 13.3h-1.6l-3.4-11.4-3.4 11.4H227l-3.9-13.3h1.5l3.2 11.4zm16.7 1.9h-1.3v-13.3h1.3v13.3zm10.3-11.1c-.6-.9-1.5-1.3-2.6-1.3-.4 0-.7 0-1 .1-.3.1-.6.2-.9.4-.3.2-.5.4-.7.8-.2.3-.2.7-.2 1.1 0 .6.2 1.1.5 1.4.3.3.8.6 1.3.8.5.2 1.1.4 1.6.6.6.2 1.1.4 1.6.7.5.3.9.7 1.3 1.1.3.5.5 1.1.5 1.9 0 .6-.1 1.1-.4 1.6-.3.5-.6.9-1 1.2-.4.3-.9.6-1.4.8-.5.2-1 .3-1.6.3-.8 0-1.6-.2-2.3-.5-.7-.3-1.4-.8-1.9-1.5l1.2-.9c.3.5.7.9 1.2 1.2.5.3 1.1.4 1.8.4.3 0 .7-.1 1-.2.3-.1.6-.3.9-.5.3-.2.5-.5.7-.8.2-.3.3-.6.3-1 0-.5-.1-.9-.3-1.2-.2-.3-.5-.6-.8-.8-.3-.2-.7-.4-1.1-.5-.4-.1-.8-.3-1.3-.4-.4-.1-.9-.3-1.3-.5s-.8-.4-1.1-.7c-.3-.3-.6-.6-.8-1-.2-.4-.3-.9-.3-1.5s.1-1.2.4-1.7c.2-.5.6-.9 1-1.2.4-.3.9-.5 1.4-.7.5-.2 1-.2 1.6-.2.8 0 1.4.1 2.1.4.6.2 1.2.7 1.7 1.3l-1.1 1zm15.5 9c-.2.3-.5.7-.8 1-.3.3-.7.6-1.1.8-.4.2-.9.4-1.4.5-.5.1-1 .2-1.6.2-1 0-1.9-.2-2.8-.5-.8-.4-1.6-.8-2.2-1.5-.6-.6-1.1-1.4-1.5-2.2-.4-.9-.5-1.8-.5-2.8 0-1 .2-2 .5-2.8.4-.9.8-1.6 1.5-2.2.6-.6 1.4-1.1 2.2-1.5.8-.4 1.8-.5 2.8-.5.8 0 1.7.2 2.5.5s1.5.9 2.1 1.6l-1.2.9c-.1-.2-.3-.4-.6-.6-.2-.2-.5-.4-.8-.6-.3-.2-.6-.3-1-.4-.4-.1-.7-.2-1.1-.2-.9 0-1.6.2-2.3.5-.7.3-1.3.7-1.7 1.3-.5.5-.8 1.1-1.1 1.8-.3.7-.4 1.4-.4 2.2 0 .8.1 1.5.4 2.2.3.7.6 1.3 1.1 1.8.5.5 1 .9 1.7 1.3.7.3 1.4.5 2.3.5.4 0 .7 0 1-.1.3-.1.7-.2 1-.3l.9-.6c.3-.3.6-.6.8-1l1.3.7zm14.1-4.6c0-.8-.1-1.5-.4-2.2-.3-.7-.6-1.3-1.1-1.8-.5-.5-1-1-1.7-1.3-.7-.3-1.4-.5-2.3-.5-.9 0-1.6.2-2.3.5-.7.3-1.3.7-1.7 1.3-.5.5-.8 1.1-1.1 1.8-.3.7-.4 1.4-.4 2.2 0 .8.1 1.5.4 2.2.3.7.6 1.3 1.1 1.8.5.5 1 .9 1.7 1.3.7.3 1.4.5 2.3.5.9 0 1.6-.2 2.3-.5.7-.3 1.3-.7 1.7-1.3.5-.5.8-1.1 1.1-1.8.3-.7.4-1.4.4-2.2zm1.5 0c0 1-.2 2-.5 2.8-.4.9-.8 1.6-1.5 2.2s-1.4 1.1-2.2 1.5c-.8.4-1.8.5-2.8.5-1 0-1.9-.2-2.8-.5-.8-.4-1.6-.8-2.2-1.5s-1.1-1.4-1.5-2.2c-.4-.9-.5-1.8-.5-2.8 0-1 .2-2 .5-2.8.4-.9.8-1.6 1.5-2.2s1.4-1.1 2.2-1.5c.8-.4 1.8-.5 2.8-.5 1 0 1.9.2 2.8.5.8.4 1.6.8 2.2 1.5s1.1 1.4 1.5 2.2c.3.9.5 1.8.5 2.8zm12.7 4.7v-11.3h1.4v13.3h-1.7l-8-11.4v11.4h-1.4v-13.3h1.7l8 11.3zm11.6-9.1c-.6-.9-1.5-1.3-2.6-1.3-.4 0-.7 0-1 .1-.3.1-.6.2-.9.4-.3.2-.5.4-.6.8-.2.3-.2.7-.2 1.1 0 .6.2 1.1.5 1.4.3.3.8.6 1.3.8.5.2 1.1.4 1.6.6.6.2 1.1.4 1.6.7.5.3.9.7 1.3 1.1.3.5.5 1.1.5 1.9 0 .6-.1 1.1-.4 1.6-.3.5-.6.9-1 1.2-.4.3-.9.6-1.4.8-.5.2-1 .3-1.6.3-.8 0-1.6-.2-2.3-.5-.7-.3-1.4-.8-1.9-1.5l1.2-.9c.3.5.7.9 1.2 1.2.5.3 1.1.4 1.8.4.3 0 .7-.1 1-.2.3-.1.6-.3.9-.5.3-.2.5-.5.7-.8.2-.3.3-.6.3-1 0-.5-.1-.9-.3-1.2s-.5-.6-.8-.8c-.3-.2-.7-.4-1.1-.5-.4-.1-.8-.3-1.3-.4-.4-.1-.9-.3-1.3-.5s-.8-.4-1.1-.7c-.3-.3-.6-.6-.8-1-.2-.4-.3-.9-.3-1.5s.1-1.2.4-1.7c.2-.5.6-.9 1-1.2.4-.3.9-.5 1.4-.7.5-.2 1-.2 1.6-.2.8 0 1.4.1 2.1.4.6.2 1.2.7 1.7 1.3l-1.2 1zm6 11.1h-1.3v-13.3h1.3v13.3zm13.6-2h.1v-11.3h1.3v13.3h-1.7l-7.9-11.4h-.1v11.4h-1.3v-13.3h1.7l7.9 11.3zM115.6 200c0-2.2-.4-4.3-1.1-6.3-.7-2-1.8-3.7-3.1-5.3-1.3-1.5-3-2.7-4.9-3.6-1.9-.9-4.1-1.3-6.6-1.3-2.4 0-4.6.5-6.6 1.3-1.9.9-3.6 2.1-4.9 3.6-1.3 1.5-2.4 3.3-3.1 5.3-.7 2-1.1 4.1-1.1 6.3s.4 4.3 1.1 6.3c.7 2 1.8 3.7 3.1 5.3 1.3 1.5 3 2.7 4.9 3.6 1.9.9 4.1 1.3 6.6 1.3 2.4 0 4.6-.4 6.6-1.3 1.9-.9 3.6-2.1 4.9-3.6 1.3-1.5 2.4-3.3 3.1-5.3.7-2.1 1.1-4.2 1.1-6.3zm4.2 0c0 2.9-.5 5.6-1.5 8-1 2.4-2.4 4.6-4.2 6.3-1.8 1.8-3.9 3.2-6.3 4.2s-5.1 1.5-7.9 1.5c-2.8 0-5.5-.5-7.9-1.5-2.4-1-4.5-2.4-6.3-4.2-1.8-1.8-3.2-3.9-4.2-6.3s-1.5-5.1-1.5-8c0-2.9.5-5.6 1.5-8 1-2.4 2.4-4.6 4.2-6.3 1.8-1.8 3.9-3.2 6.3-4.2s5.1-1.5 7.9-1.5c2.8 0 5.5.5 7.9 1.5 2.4 1 4.5 2.4 6.3 4.2 1.8 1.8 3.2 3.9 4.2 6.3s1.5 5 1.5 8zm25.5-12.8c-1.7-2.5-4.1-3.7-7.4-3.7-1 0-2 .1-3 .4-1 .3-1.8.7-2.6 1.2-.8.6-1.4 1.3-1.9 2.2-.5.9-.7 1.9-.7 3.1 0 1.7.5 3.1 1.5 4 1 1 2.2 1.7 3.6 2.3 1.4.6 3 1.2 4.7 1.6 1.7.5 3.3 1.1 4.7 1.9 1.4.8 2.6 1.9 3.6 3.2 1 1.3 1.5 3.1 1.5 5.4 0 1.7-.4 3.3-1.1 4.7-.7 1.4-1.7 2.5-2.9 3.5-1.2.9-2.6 1.7-4 2.2-1.5.5-3 .8-4.5.8-2.3 0-4.6-.4-6.7-1.3-2.1-.9-3.9-2.3-5.4-4.3l3.6-2.5c.8 1.4 2 2.5 3.4 3.4 1.5.8 3.2 1.3 5.2 1.3 1 0 1.9-.2 2.9-.5s1.8-.8 2.6-1.3c.8-.6 1.4-1.3 1.9-2.2.5-.9.8-1.8.8-3 0-1.3-.3-2.4-.8-3.3-.6-.9-1.3-1.6-2.2-2.2-.9-.6-2-1.1-3.1-1.5l-3.6-1.2c-1.2-.4-2.4-.8-3.6-1.3-1.2-.5-2.2-1.1-3.1-1.9-.9-.8-1.7-1.7-2.2-2.9-.6-1.2-.8-2.6-.8-4.4 0-1.8.4-3.4 1.1-4.8.7-1.4 1.6-2.5 2.8-3.4 1.2-.9 2.5-1.6 4-2 1.5-.4 3-.6 4.5-.6 2.2 0 4.1.3 5.9 1 1.8.7 3.4 1.9 4.9 3.6l-3.6 2.5zm11.9-6.3h3.9v16.5h20.8v-16.5h3.9V219h-3.9v-18h-20.8v18h-3.9v-38.1zm42.9 16.5h.5l18-16.5h5.5l-19.2 17.3 20.3 20.8h-5.7l-18.8-19.6h-.6V219h-3.9v-38.1h3.9v16.5zm62.7 2.6c0-2.2-.4-4.3-1.1-6.3-.7-2-1.8-3.7-3.1-5.3-1.3-1.5-3-2.7-4.9-3.6-1.9-.9-4.1-1.3-6.6-1.3s-4.6.5-6.6 1.3c-1.9.9-3.6 2.1-4.9 3.6-1.3 1.5-2.4 3.3-3.1 5.3-.7 2-1.1 4.1-1.1 6.3s.4 4.3 1.1 6.3c.7 2 1.8 3.7 3.1 5.3 1.3 1.5 3 2.7 4.9 3.6 1.9.9 4.1 1.3 6.6 1.3s4.6-.4 6.6-1.3c1.9-.9 3.6-2.1 4.9-3.6s2.4-3.3 3.1-5.3c.7-2.1 1.1-4.2 1.1-6.3zm4.2 0c0 2.9-.5 5.6-1.5 8-1 2.4-2.4 4.6-4.2 6.3-1.8 1.8-3.9 3.2-6.3 4.2s-5.1 1.5-7.9 1.5c-2.8 0-5.5-.5-7.9-1.5-2.4-1-4.5-2.4-6.3-4.2-1.8-1.8-3.2-3.9-4.2-6.3s-1.5-5.1-1.5-8c0-2.9.5-5.6 1.5-8 1-2.4 2.4-4.6 4.2-6.3 1.8-1.8 3.9-3.2 6.3-4.2s5.1-1.5 7.9-1.5c2.8 0 5.5.5 7.9 1.5 2.4 1 4.5 2.4 6.3 4.2 1.8 1.8 3.2 3.9 4.2 6.3s1.5 5 1.5 8zm24.8-12.8c-1.7-2.5-4.1-3.7-7.4-3.7-1 0-2 .1-3 .4-1 .3-1.8.7-2.6 1.2-.8.6-1.4 1.3-1.9 2.2-.5.9-.7 1.9-.7 3.1 0 1.7.5 3.1 1.5 4 1 1 2.2 1.7 3.6 2.3 1.4.6 3 1.2 4.7 1.6 1.7.5 3.3 1.1 4.7 1.9 1.4.8 2.6 1.9 3.6 3.2 1 1.3 1.5 3.1 1.5 5.4 0 1.7-.4 3.3-1.1 4.7-.7 1.4-1.7 2.5-2.9 3.5-1.2.9-2.6 1.7-4 2.2-1.5.5-3 .8-4.5.8-2.3 0-4.6-.4-6.7-1.3-2.1-.9-3.9-2.3-5.4-4.3l3.6-2.5c.8 1.4 2 2.5 3.4 3.4 1.5.8 3.2 1.3 5.2 1.3 1 0 1.9-.2 2.9-.5s1.8-.8 2.6-1.3c.8-.6 1.4-1.3 1.9-2.2.5-.9.8-1.8.8-3 0-1.3-.3-2.4-.8-3.3-.6-.9-1.3-1.6-2.2-2.2-.9-.6-2-1.1-3.1-1.5l-3.6-1.2c-1.2-.4-2.4-.8-3.6-1.3-1.2-.5-2.2-1.1-3.1-1.9-.9-.8-1.7-1.7-2.2-2.9-.6-1.2-.8-2.6-.8-4.4 0-1.8.4-3.4 1.1-4.8s1.6-2.5 2.8-3.4c1.2-.9 2.5-1.6 4-2 1.5-.4 3-.6 4.5-.6 2.2 0 4.1.3 5.9 1 1.8.7 3.4 1.9 4.9 3.6l-3.6 2.5zm10.8-6.3h3.9v16.5h20.8v-16.5h3.9V219h-3.9v-18h-20.8v18h-3.9v-38.1zM240.3 42.1l-14 55h-.3l-17.3-55h-17.1l-17.5 53.6h-.2l-13.3-53.6H132v50.6c0 2.6-.4 5-1.2 7.2-.8 2.2-2 4.1-3.5 5.7-1.5 1.6-3.3 2.9-5.3 3.8-2 .9-4.3 1.4-6.7 1.4-2.4 0-4.7-.5-6.8-1.4-2.1-.9-3.9-2.2-5.4-3.8-1.5-1.6-2.7-3.5-3.5-5.7-.8-2.2-1.2-4.6-1.2-7.2V42.1H80v51.3c0 5 .7 9.5 2.2 13.7 1.5 4.2 3.7 7.8 6.7 10.9 2.9 3.1 6.6 5.5 11 7.2 4.4 1.7 9.5 2.6 15.3 2.6 5.7 0 10.8-.9 15.2-2.6 4.4-1.7 8.1-4.1 11-7.2 2.9-3.1 5.2-6.7 6.7-10.9s2.2-8.7 2.2-13.7V75.7l14.8 49.9h15.8l18.4-57.8h.2l18.4 57.8h16.4l24.4-83.5h-18.4z" fill="#231f20"/><path d="M260.2 83.9c0 3.9.6 7.5 1.8 10.8 1.2 3.3 3 6.1 5.2 8.5 2.3 2.4 5 4.3 8.2 5.6 3.2 1.3 6.7 2 10.7 2 3.9 0 7.5-.7 10.7-2 3.2-1.3 5.9-3.2 8.2-5.6 2.3-2.4 4-5.2 5.2-8.5 1.2-3.3 1.8-6.9 1.8-10.8 0-3.8-.6-7.4-1.8-10.7-1.2-3.3-3-6.2-5.2-8.6-2.3-2.4-5-4.3-8.2-5.6-3.2-1.3-6.7-2-10.7-2-3.9 0-7.5.7-10.7 2-3.2 1.3-5.9 3.2-8.2 5.6-2.3 2.4-4 5.3-5.2 8.6-1.1 3.3-1.8 6.8-1.8 10.7zm-19.1 0c0-6.7 1.1-12.7 3.4-18.2 2.2-5.4 5.4-10 9.4-13.9 4-3.8 8.8-6.7 14.3-8.8 5.5-2 11.5-3.1 18.1-3.1 6.5 0 12.5 1 18 3.1 5.5 2 10.3 5 14.3 8.8 4 3.8 7.1 8.4 9.4 13.9 2.2 5.4 3.4 11.5 3.4 18.2 0 6.7-1.1 12.7-3.4 18.2-2.2 5.4-5.4 10-9.4 13.9-4 3.8-8.8 6.7-14.3 8.8-5.5 2-11.5 3.1-18 3.1s-12.5-1-18.1-3.1c-5.5-2-10.3-5-14.3-8.8-4-3.8-7.1-8.4-9.4-13.9-2.2-5.5-3.4-11.5-3.4-18.2z" fill="#ffcf01"/></svg>